# This file uses centimeters as units for non-parametric coordinates.

mtllib soccerBallSpread.mtl
g default
v 0.012406 0.011170 0.018182
v 0.621354 0.011152 0.018182
v -0.330833 0.011152 -0.484812
v -0.209600 0.011152 0.585220
v 0.887062 0.011117 -0.484812
v 0.775699 0.011123 0.585220
v -0.812753 0.011117 -0.459648
v -0.065126 0.011117 -0.987808
v 0.262142 0.011123 0.935668
v -0.774846 0.011117 0.649262
v 2.063344 0.011053 -0.575013
v 0.543823 0.011099 -0.987808
v 1.437681 0.011059 0.940345
v -0.979714 0.011059 -0.884184
v -1.118086 0.011099 0.146267
v -0.748038 0.011059 -1.381103
v 0.168636 0.011059 1.350159
v -0.868350 0.011053 1.063752
v 1.713598 0.010995 -2.084244
v 1.889049 0.011024 0.693897
v 0.784457 0.011024 -1.658734
v 1.187615 0.010995 1.525984
v -1.978956 0.010984 -1.265321
v -2.797435 0.011024 0.412734
v -0.162949 0.010984 -2.174885
v 0.588689 0.010995 1.414201
v -0.396610 0.011024 1.414201
v -2.115282 0.010995 1.332659
v 0.418320 0.010967 -1.987414
v -2.864061 0.010967 -0.409229
vt 0.225806 0.299280
vt 0.290323 0.299280
vt 0.322581 0.355153
vt 0.290323 0.411025
vt 0.225806 0.411025
vt 0.193548 0.355153
vt 0.419355 0.299280
vt 0.483871 0.299280
vt 0.516129 0.355153
vt 0.483871 0.411025
vt 0.419355 0.411025
vt 0.387097 0.355153
vt 0.612903 0.299280
vt 0.677419 0.299280
vt 0.709677 0.355153
vt 0.677419 0.411025
vt 0.612903 0.411025
vt 0.580645 0.355153
vt 0.806452 0.299280
vt 0.870968 0.299280
vt 0.774194 0.355153
vt 0.612903 0.522771
vt 0.580645 0.466898
vt 0.516129 0.466898
vt 0.483871 0.522771
vt 0.419355 0.522771
vt 0.387097 0.466898
vt 0.322581 0.466898
vt 0.290323 0.522771
vt 0.225806 0.522771
vt 0.193548 0.466898
vt 0.387097 0.578643
vt 0.322581 0.578643
vt 0.580645 0.578643
vt 0.516129 0.578643
vt 0.503808 0.584129
vt 0.451613 0.622051
vt 0.399418 0.584129
vt 0.302644 0.405539
vt 0.354839 0.367618
vt 0.407033 0.405539
vt 0.496192 0.405539
vt 0.548387 0.367618
vt 0.600582 0.405539
vt 0.205870 0.237922
vt 0.258065 0.200000
vt 0.310259 0.237922
vn 0.000001 1.000000 0.000001
vn 0.000057 1.000000 0.000002
vn -0.000029 1.000000 -0.000038
vn 0.000046 1.000000 -0.000056
vn 0.000027 1.000000 -0.000079
vn 0.000006 1.000000 -0.000112
vn -0.000037 1.000000 0.000067
vn -0.000113 1.000000 -0.000052
vn -0.000054 1.000000 0.000001
vn -0.000100 1.000000 0.000076
vn 0.000029 1.000000 0.000120
vn 0.000053 1.000000 0.000051
vn 0.000071 1.000000 0.000056
vn 0.000098 1.000000 0.000036
vn 0.000058 1.000000 -0.000020
vn -0.000025 1.000000 -0.000085
vn -0.000072 1.000000 -0.000045
vn -0.000043 1.000000 0.000083
vn -0.000046 1.000000 0.000144
vn -0.000004 1.000000 0.000154
vn 0.000034 1.000000 -0.000058
vn -0.000031 1.000000 -0.000128
vn 0.000047 1.000000 0.000200
vn -0.000019 1.000000 0.000101
vn -0.000060 1.000000 -0.000040
vn -0.000058 1.000000 -0.000055
vn -0.000046 1.000000 -0.000012
vn 0.000006 1.000000 -0.000120
vn 0.000049 1.000000 -0.000058
vn -0.000034 1.000000 0.000056
s 1
g pSolid1
usemtl initialShadingGroup
f 1/11/1 2/12/2 3/10/3
f 5/7/4 12/8/5 2/12/2
f 2/12/2 12/8/5 3/10/3
f 12/8/5 8/9/6 3/10/3
f 1/11/1 3/10/3 4/27/7
f 7/24/8 15/25/9 3/10/3
f 3/10/3 15/25/9 4/27/7
f 15/25/9 10/26/10 4/27/7
f 4/27/7 9/28/11 1/41/1
f 9/28/11 6/39/12 1/41/1
f 6/39/12 2/40/2 1/41/1
f 6/4/12 13/5/13 2/3/2
f 20/6/14 11/1/15 13/5/13
f 5/2/4 2/3/2 11/1/15
f 13/5/13 11/1/15 2/3/2
f 8/43/6 16/44/16 3/42/3
f 16/44/16 14/23/17 3/42/3
f 14/23/17 7/24/8 3/42/3
f 10/26/10 18/32/18 4/27/7
f 27/33/19 17/29/20 18/32/18
f 18/32/18 17/29/20 4/27/7
f 17/29/20 9/28/11 4/27/7
f 5/1/4 11/45/15 12/2/5
f 11/45/15 19/46/21 12/2/5
f 19/46/21 21/47/22 12/2/5
f 6/4/12 9/28/11 13/5/13
f 17/29/20 26/30/23 9/28/11
f 22/31/24 13/5/13 26/30/23
f 9/28/11 26/30/23 13/5/13
f 7/24/8 14/23/17 15/25/9
f 23/22/25 30/34/26 14/23/17
f 14/23/17 30/34/26 15/25/9
f 30/34/26 24/35/27 15/25/9
f 8/18/6 12/13/5 16/17/16
f 21/14/22 29/15/28 12/13/5
f 25/16/29 16/17/16 29/15/28
f 12/13/5 29/15/28 16/17/16
f 10/26/10 15/25/9 18/38/18
f 15/25/9 24/36/27 18/38/18
f 24/36/27 28/37/30 18/38/18
f 14/23/17 16/17/16 23/22/25
f 29/21/28 21/19/22 19/20/21
