#Fractured shard.obj
#Thursday, March 16, 2017
#11:22:53 AM
#-------

g Fractured shard
#Fractured shard
#-------
v 1.764186 -1.761934 0.03430885
v 1.287313 -1.860826 -0.4695512
v 0.9461917 -1.921827 -0.9842081
v 0.9926405 -1.875448 -1.517025
v 1.411489 -1.757022 -1.574335
v 2.70449 -1.494197 -0.1240313
v 1.411489 -1.757022 -1.574335
v 0.9926405 -1.875448 -1.517025
v 1.005688 -2.313027 -1.627808
v 1.038672 -2.301346 -1.631739
v 0.99687 -2.486214 -1.512475
v 0.9971519 -2.485527 -1.515743
v 1.005688 -2.313027 -1.627808
v 0.9926405 -1.875448 -1.517025
v 0.9461917 -1.921827 -0.9842081
v 1.923986 -2.371623 -0.4460442
v 2.70449 -1.494197 -0.1240313
v 1.411489 -1.757022 -1.574335
v 1.038672 -2.301346 -1.631739
v 1.019667 -2.49435 -1.507421
v 1.03222 -2.503661 -1.484207
v 1.348663 -2.510941 -1.074133
v 1.03222 -2.503661 -1.484207
v 0.99687 -2.486214 -1.512475
v 0.9461917 -1.921827 -0.9842081
v 1.287313 -1.860826 -0.4695512
v 1.348663 -2.510941 -1.074133
v 1.348663 -2.510941 -1.074133
v 1.287313 -1.860826 -0.4695512
v 1.764186 -1.761934 0.03430885
v 1.923986 -2.371623 -0.4460442
v 1.923986 -2.371623 -0.4460442
v 1.764186 -1.761934 0.03430885
v 2.70449 -1.494197 -0.1240313
v 1.038672 -2.301346 -1.631739
v 1.005688 -2.313027 -1.627808
v 0.9971519 -2.485527 -1.515743
v 1.019667 -2.49435 -1.507421
v 1.019667 -2.49435 -1.507421
v 0.9971519 -2.485527 -1.515743
v 0.99687 -2.486214 -1.512475
v 1.03222 -2.503661 -1.484207

vn 0.2638609 -0.9626432 -0.06079071
vn 0.2638609 -0.9626432 -0.06079071
vn 0.2638609 -0.9626432 -0.06079071
vn 0.2638609 -0.9626432 -0.06079071
vn 0.2638609 -0.9626432 -0.06079071
vn 0.2638609 -0.9626432 -0.06079071
vn 0.1967176 -0.2351179 0.9518517
vn 0.1967176 -0.2351179 0.9518517
vn 0.1967176 -0.2351179 0.9518517
vn 0.1967176 -0.2351179 0.9518517
vn 0.9961362 0.007549975 0.08749644
vn 0.9961362 0.007549975 0.08749644
vn 0.9961362 0.007549975 0.08749644
vn 0.9961362 0.007549975 0.08749644
vn 0.9961362 0.007549975 0.08749644
vn -0.7115685 0.4286563 0.5567083
vn -0.7115685 0.4286563 0.5567083
vn -0.7115685 0.4286563 0.5567083
vn -0.7115685 0.4286563 0.5567083
vn -0.7115685 0.4286563 0.5567083
vn -0.7115685 0.4286563 0.5567083
vn -0.7115685 0.4286563 0.5567083
vn 0.6723852 0.5371071 -0.509327
vn 0.6723852 0.5371071 -0.509327
vn 0.6723852 0.5371071 -0.509327
vn 0.6723852 0.5371071 -0.509327
vn 0.6723852 0.5371071 -0.509327
vn 0.512013 0.6103756 -0.6043875
vn 0.512013 0.6103756 -0.6043875
vn 0.512013 0.6103756 -0.6043875
vn 0.512013 0.6103756 -0.6043875
vn -0.2877901 0.5450075 -0.787492
vn -0.2877901 0.5450075 -0.787492
vn -0.2877901 0.5450075 -0.787492
vn -0.09397563 0.5456366 0.832736
vn -0.09397563 0.5456366 0.832736
vn -0.09397563 0.5456366 0.832736
vn -0.09397563 0.5456366 0.832736
vn 0.2840933 0.9330676 0.220626
vn 0.2840933 0.9330676 0.220626
vn 0.2840933 0.9330676 0.220626
vn 0.2840933 0.9330676 0.220626

vt 0 0
vt 0 0
vt 0 0
vt 0 0
vt 0 0
vt 0 0
vt 0 0
vt 0 0
vt 0 0
vt 0 0
vt 0 0
vt 0 0
vt 0 0
vt 0 0
vt 0 0
vt 0 0
vt 0 0
vt 0 0
vt 0 0
vt 0 0
vt 0 0
vt 0 0
vt 0 0
vt 0 0
vt 0 0
vt 0 0
vt 0 0
vt 0 0
vt 0 0
vt 0 0
vt 0 0
vt 0 0
vt 0 0
vt 0 0
vt 0 0
vt 0 0
vt 0 0
vt 0 0
vt 0 0
vt 0 0
vt 0 0
vt 0 0

usemtl Triplanar Bumped (Instance)
usemap Triplanar Bumped (Instance)
f 1/1/1 2/2/2 3/3/3
f 1/1/1 3/3/3 4/4/4
f 1/1/1 4/4/4 5/5/5
f 1/1/1 5/5/5 6/6/6
f 7/7/7 8/8/8 9/9/9
f 7/7/7 9/9/9 10/10/10
f 11/11/11 12/12/12 13/13/13
f 11/11/11 13/13/13 14/14/14
f 11/11/11 14/14/14 15/15/15
f 16/16/16 17/17/17 18/18/18
f 16/16/16 18/18/18 19/19/19
f 16/16/16 19/19/19 20/20/20
f 16/16/16 20/20/20 21/21/21
f 16/16/16 21/21/21 22/22/22
f 23/23/23 24/24/24 25/25/25
f 23/23/23 25/25/25 26/26/26
f 23/23/23 26/26/26 27/27/27
f 28/28/28 29/29/29 30/30/30
f 28/28/28 30/30/30 31/31/31
f 32/32/32 33/33/33 34/34/34
f 35/35/35 36/36/36 37/37/37
f 35/35/35 37/37/37 38/38/38
f 39/39/39 40/40/40 41/41/41
f 39/39/39 41/41/41 42/42/42
f 1/1/1 1/1/1 1/1/1
f 1/1/1 1/1/1 1/1/1
f 1/1/1 1/1/1 1/1/1
f 1/1/1 1/1/1 1/1/1
f 1/1/1 1/1/1 1/1/1
f 1/1/1 1/1/1 1/1/1
f 1/1/1 1/1/1 1/1/1
f 1/1/1 1/1/1 1/1/1
f 1/1/1 1/1/1 1/1/1
f 1/1/1 1/1/1 1/1/1
f 1/1/1 1/1/1 1/1/1
f 1/1/1 1/1/1 1/1/1
f 1/1/1 1/1/1 1/1/1
f 1/1/1 1/1/1 1/1/1
f 1/1/1 1/1/1 1/1/1
f 1/1/1 1/1/1 1/1/1
f 1/1/1 1/1/1 1/1/1
f 1/1/1 1/1/1 1/1/1
