# This file uses centimeters as units for non-parametric coordinates.

g default
v 0.438726 -9.469639 -5.026645
v -3.688281 -9.742458 -4.890170
v -3.129958 -9.742458 4.744720
v 2.508023 -9.281485 -0.303806
v -5.127711 6.450422 0.332227
v -1.857574 6.241753 5.363555
v -4.381934 -9.775108 -3.174121
v -3.938788 -9.772116 3.217959
v -5.558176 -6.827072 0.042681
v -0.089510 -18.460033 -0.757000
v -1.988803 -14.720139 -2.529563
v -1.807341 -14.349740 2.608546
v 0.098307 8.034989 4.978614
v 4.231825 0.934659 -0.095176
v -1.689941 -9.645861 4.694682
v 2.458109 -9.287460 -0.147905
v 2.138407 -10.756970 -0.264566
v -1.104241 -15.940683 1.854985
v 0.017197 -18.632711 -0.401791
v 1.280874 1.147763 4.806482
v 3.092518 -0.303602 2.145203
v -3.932868 6.871159 -1.860907
v 0.958040 -5.645715 -4.953449
v -3.240462 -3.458861 -4.765608
v -1.931136 13.201230 0.297980
v 1.662250 18.345982 1.719382
v 4.257938 5.592223 -1.366241
v 1.892829 15.437172 1.653718
vt 0.001832 0.241450
vt 0.048053 0.240570
vt 0.005187 0.410698
vt 0.065414 0.107377
vt 0.134697 0.319975
vt 0.142496 0.677603
vt 0.220223 0.240651
vt 0.083425 0.688935
vt 0.203809 0.117353
vt 0.261346 0.241450
vt 0.141574 0.859435
vt 0.183512 0.074501
vt 0.278014 0.671982
vt 0.113158 0.006643
vt 0.179859 0.998008
vt 0.122726 0.001992
vt 0.455298 0.654487
vt 0.421062 0.529036
vt 0.551919 0.351795
vt 0.360718 0.495684
vt 0.426681 0.253866
vt 0.422482 0.253705
vt 0.289036 0.534776
vt 0.553890 0.248798
vt 0.284400 0.720283
vt 0.425624 0.214124
vt 0.373956 0.919660
vt 0.438888 0.006643
vt 0.292048 0.244052
vt 0.372187 0.998008
vt 0.429320 0.001992
vt 0.368535 0.074501
vt 0.567872 0.758550
vt 0.579933 0.589303
vt 0.679032 0.751202
vt 0.693020 0.648205
vt 0.613647 0.892623
vt 0.561284 0.311065
vt 0.664804 0.993357
vt 0.781902 0.345513
vt 0.615200 0.140565
vt 0.718198 0.080340
vt 0.711987 0.001992
vt 0.788658 0.168940
vt 0.827445 0.171542
vt 0.822930 0.599473
vt 0.824283 0.044844
vt 0.907463 0.462267
vt 0.843221 0.001992
vt 0.875611 0.647773
vt 0.917736 0.925499
vn -0.034513 0.022266 -0.999156
vn -0.034513 0.022266 -0.999156
vn -0.034513 0.022266 -0.999156
vn -0.032446 0.023533 -0.999196
vn -0.032446 0.023533 -0.999196
vn -0.032446 0.023533 -0.999196
vn -0.925112 0.073316 -0.372549
vn -0.925112 0.073316 -0.372549
vn -0.925112 0.073316 -0.372549
vn -0.916134 0.065932 -0.395413
vn -0.916134 0.065932 -0.395413
vn -0.916134 0.065932 -0.395413
vn -0.910425 0.038498 -0.411879
vn -0.910425 0.038498 -0.411879
vn -0.910425 0.038499 -0.411879
vn -0.881593 0.072076 -0.466474
vn -0.881593 0.072076 -0.466474
vn -0.881593 0.072076 -0.466475
vn 0.037486 -0.041639 0.998429
vn 0.037486 -0.041639 0.998429
vn 0.037486 -0.041639 0.998429
vn 0.186504 0.007470 0.982426
vn 0.186504 0.007470 0.982426
vn 0.186504 0.007470 0.982426
vn 0.110299 -0.040645 0.993067
vn 0.110299 -0.040645 0.993067
vn 0.110299 -0.040645 0.993067
vn 0.892367 -0.123469 -0.434093
vn 0.892367 -0.123469 -0.434093
vn 0.892367 -0.123469 -0.434093
vn 0.899788 -0.143409 -0.412087
vn 0.899788 -0.143408 -0.412087
vn 0.899788 -0.143408 -0.412087
vn 0.911426 -0.116222 -0.394708
vn 0.911426 -0.116222 -0.394708
vn 0.911426 -0.116222 -0.394708
vn -0.001519 -0.428918 -0.903342
vn -0.001519 -0.428918 -0.903342
vn -0.001519 -0.428918 -0.903342
vn -0.001517 -0.428919 -0.903342
vn -0.001517 -0.428919 -0.903342
vn -0.001517 -0.428919 -0.903342
vn -0.795362 -0.427539 0.429663
vn -0.795362 -0.427539 0.429663
vn -0.795362 -0.427539 0.429663
vn 0.930352 -0.225366 0.289232
vn 0.930352 -0.225366 0.289232
vn 0.930352 -0.225366 0.289232
vn 0.893884 -0.234090 -0.382326
vn 0.893884 -0.234090 -0.382326
vn 0.893884 -0.234090 -0.382326
vn 0.893883 -0.234092 -0.382326
vn 0.893883 -0.234092 -0.382326
vn 0.893883 -0.234092 -0.382326
vn 0.893883 -0.234092 -0.382327
vn 0.893883 -0.234092 -0.382327
vn 0.893883 -0.234092 -0.382327
vn -0.772440 0.368383 0.517330
vn -0.772440 0.368383 0.517330
vn -0.772440 0.368383 0.517330
vn -0.755506 0.380303 0.533461
vn -0.755506 0.380303 0.533461
vn -0.755506 0.380303 0.533461
vn -0.101966 0.313852 0.943981
vn -0.101966 0.313852 0.943981
vn -0.101966 0.313852 0.943981
vn 0.825037 0.052699 0.562616
vn 0.825037 0.052699 0.562616
vn 0.825037 0.052699 0.562616
vn -0.836730 0.045478 0.545723
vn -0.836730 0.045478 0.545723
vn -0.836730 0.045478 0.545723
vn -0.883655 0.018448 0.467775
vn -0.883655 0.018448 0.467775
vn -0.883655 0.018448 0.467775
vn -0.883656 0.018448 0.467774
vn -0.883656 0.018448 0.467774
vn -0.883656 0.018448 0.467774
vn -0.827272 -0.445046 -0.342864
vn -0.827272 -0.445046 -0.342864
vn -0.827272 -0.445046 -0.342864
vn -0.901542 -0.428125 0.062701
vn -0.901542 -0.428125 0.062701
vn -0.901542 -0.428125 0.062701
vn -0.901542 -0.428126 0.062702
vn -0.901541 -0.428126 0.062702
vn -0.901541 -0.428126 0.062702
vn -0.901541 -0.428126 0.062703
vn -0.901541 -0.428126 0.062703
vn -0.901541 -0.428126 0.062703
vn -0.901541 -0.428126 0.062702
vn -0.901541 -0.428126 0.062702
vn -0.901541 -0.428126 0.062702
vn -0.901541 -0.428126 0.062703
vn -0.901541 -0.428126 0.062703
vn -0.901541 -0.428126 0.062703
vn -0.901541 -0.428126 0.062703
vn -0.901541 -0.428126 0.062703
vn -0.901541 -0.428126 0.062703
vn 0.842253 0.037372 0.537785
vn 0.842253 0.037372 0.537785
vn 0.842253 0.037372 0.537785
vn 0.851604 0.133556 0.506886
vn 0.851604 0.133556 0.506886
vn 0.851604 0.133556 0.506886
vn 0.851604 0.133556 0.506886
vn 0.851604 0.133556 0.506886
vn 0.851604 0.133556 0.506886
vn 0.851604 0.133556 0.506886
vn 0.851604 0.133556 0.506886
vn 0.851604 0.133556 0.506886
vn 0.941168 -0.164831 0.295013
vn 0.941168 -0.164831 0.295013
vn 0.941168 -0.164831 0.295013
vn 0.912816 -0.160327 0.375584
vn 0.912815 -0.160327 0.375584
vn 0.912815 -0.160327 0.375584
vn 0.058919 -0.405936 0.912000
vn 0.058919 -0.405936 0.912000
vn 0.058919 -0.405936 0.912000
vn 0.058921 -0.405936 0.912000
vn 0.058921 -0.405936 0.912000
vn 0.058921 -0.405936 0.912000
vn 0.749792 -0.212861 0.626500
vn 0.749792 -0.212861 0.626500
vn 0.749792 -0.212861 0.626500
vn 0.749791 -0.212861 0.626501
vn 0.749791 -0.212861 0.626501
vn 0.749791 -0.212861 0.626501
vn 0.749792 -0.212860 0.626501
vn 0.749792 -0.212860 0.626501
vn 0.749792 -0.212860 0.626501
vn 0.749794 -0.212859 0.626499
vn 0.749794 -0.212859 0.626499
vn 0.749794 -0.212859 0.626499
vn 0.749791 -0.212860 0.626501
vn 0.749791 -0.212860 0.626501
vn 0.749791 -0.212860 0.626501
vn -0.836673 0.394244 -0.380196
vn -0.836673 0.394244 -0.380196
vn -0.836673 0.394244 -0.380196
vn 0.309805 0.045996 -0.949687
vn 0.309805 0.045996 -0.949687
vn 0.309805 0.045996 -0.949687
vn 0.143751 0.321621 -0.935893
vn 0.143751 0.321621 -0.935893
vn 0.143751 0.321621 -0.935893
vn 0.102984 0.291752 -0.950934
vn 0.102984 0.291752 -0.950934
vn 0.102984 0.291752 -0.950934
vn 0.100763 0.275568 -0.955986
vn 0.100763 0.275568 -0.955986
vn 0.100763 0.275568 -0.955986
vn 0.100763 0.275568 -0.955986
vn 0.100763 0.275568 -0.955986
vn 0.100763 0.275568 -0.955986
s off
g crystalHex_E
f 2/33/1 24/34/2 1/35/3
f 1/35/4 24/34/5 23/36/6
f 2/1/7 7/2/8 24/3/9
f 7/2/10 9/5/11 24/3/12
f 9/5/13 5/6/14 24/3/15
f 5/6/16 22/8/17 24/3/18
f 3/44/19 15/45/20 6/46/21
f 13/50/22 6/46/23 20/48/24
f 15/45/25 20/48/26 6/46/27
f 27/17/28 14/18/29 23/19/30
f 14/18/31 4/21/32 23/19/33
f 4/21/34 1/24/35 23/19/36
f 2/33/37 1/35/38 11/37/39
f 11/37/40 1/35/41 10/39/42
f 3/10/43 8/7/44 12/9/45
f 4/21/46 16/22/47 17/26/48
f 4/21/49 17/26/50 1/24/51
f 19/31/52 10/28/53 17/26/54
f 1/24/55 17/26/56 10/28/57
f 5/6/58 6/13/59 25/11/60
f 25/11/61 6/13/62 26/15/63
f 6/46/64 13/50/65 26/51/66
f 26/30/67 13/25/68 28/27/69
f 6/13/70 5/6/71 3/10/72
f 3/10/73 5/6/74 8/7/75
f 9/5/76 8/7/77 5/6/78
f 11/4/79 7/2/80 2/1/81
f 7/2/82 11/4/83 9/5/84
f 9/5/85 11/4/86 8/7/87
f 8/7/88 11/4/89 12/9/90
f 12/9/91 11/4/92 18/12/93
f 19/16/94 18/12/95 10/14/96
f 11/4/97 10/14/98 18/12/99
f 28/27/100 13/25/101 27/17/102
f 13/25/103 20/23/104 27/17/105
f 20/23/106 21/20/107 27/17/108
f 21/20/109 14/18/110 27/17/111
f 4/21/112 14/18/113 16/22/114
f 21/20/115 16/22/116 14/18/117
f 18/49/118 15/45/119 12/47/120
f 12/47/121 15/45/122 3/44/123
f 19/31/124 17/26/125 18/32/126
f 18/32/127 17/26/128 15/29/129
f 15/29/130 17/26/131 20/23/132
f 17/26/133 16/22/134 20/23/135
f 20/23/136 16/22/137 21/20/138
f 25/11/139 22/8/140 5/6/141
f 26/43/142 28/42/143 25/41/144
f 28/42/145 27/40/146 25/41/147
f 25/41/148 27/40/149 22/38/150
f 27/40/151 23/36/152 22/38/153
f 23/36/154 24/34/155 22/38/156
