# This file uses centimeters as units for non-parametric coordinates.

g default
v -3.681381 -12.443413 3.681381
v 3.681381 12.443416 -3.681381
v 3.681381 -12.443413 -3.681381
v 0.000000 22.162718 0.000000
v 0.000000 -22.162712 0.000000
v -0.716470 12.443416 3.681381
v -3.681381 -2.347425 3.681381
v -3.681381 12.443416 1.678886
v -2.161987 16.454792 2.161987
v 1.926549 -12.443413 3.681381
v 3.681381 -12.443413 0.949417
v 2.205415 -16.340149 2.205414
v 1.553602 12.443416 -3.681381
v -1.758510 17.520037 -1.758511
v -3.681381 12.443416 -1.553322
v 3.681381 12.443416 -0.408451
v 1.139964 19.153080 1.139961
v 0.133672 12.443416 3.681381
v 3.226397 -4.874386 3.681381
v 3.681381 -4.485943 3.076904
v -3.675520 -12.443413 3.681381
v -1.282405 -12.443413 -3.681381
v -3.681381 -12.402718 3.681381
v -1.142200 -19.147167 -1.142204
v -3.661495 -12.495918 3.661495
v -2.682602 -2.721569 -3.681381
v -3.681381 2.069195 -2.731361
vt 0.245168 0.998008
vt 0.219553 0.930380
vt 0.327891 0.779610
vt 0.254346 0.779610
vt 0.162445 0.779610
vt 0.176028 0.399198
vt 0.223834 0.220390
vt 0.162445 0.390470
vt 0.327891 0.220390
vt 0.195611 0.132828
vt 0.162445 0.220390
vt 0.245168 0.001992
vt 0.417185 0.998008
vt 0.377671 0.893685
vt 0.465766 0.869748
vt 0.382281 0.779610
vt 0.454911 0.779610
vt 0.499908 0.779610
vt 0.355810 0.546496
vt 0.499908 0.447252
vt 0.499908 0.221304
vt 0.334463 0.438845
vt 0.334463 0.220390
vt 0.499908 0.220390
vt 0.499461 0.219210
vt 0.391519 0.069753
vt 0.417185 0.001992
vt 0.001341 0.220390
vt 0.001473 0.220390
vt 0.001341 0.221304
vt 0.001788 0.219210
vt 0.127354 0.220390
vt 0.001341 0.447252
vt 0.133621 0.132828
vt 0.156563 0.390470
vt 0.084064 0.001992
vt 0.067964 0.779610
vt 0.087067 0.779610
vt 0.109679 0.930380
vt 0.035483 0.869748
vt 0.084064 0.998008
vt 0.624113 0.220390
vt 0.549688 0.106315
vt 0.671925 0.220390
vt 0.506480 0.220390
vt 0.589202 0.001992
vt 0.671925 0.779610
vt 0.506480 0.453504
vt 0.528923 0.561155
vt 0.560386 0.779610
vt 0.563536 0.930247
vt 0.589202 0.998008
vn 0.000000 0.000000 1.000000
vn 0.000000 0.000000 1.000000
vn 0.000000 0.000000 1.000000
vn 0.000000 -0.354213 0.935165
vn 0.000000 -0.354212 0.935165
vn 0.000000 -0.354185 0.935175
vn 0.935165 0.354213 -0.000002
vn 0.935165 0.354213 -0.000001
vn 0.935165 0.354212 -0.000000
vn 0.935165 0.354212 0.000000
vn 0.935165 -0.354213 -0.000000
vn 0.935165 -0.354213 -0.000000
vn 0.935165 -0.354213 -0.000000
vn 0.935165 -0.354212 0.000000
vn -0.000001 0.354213 0.935165
vn -0.000002 0.354213 0.935165
vn -0.000001 0.354213 0.935165
vn 0.000000 0.354212 0.935165
vn -0.000001 0.354213 0.935165
vn -0.935165 0.354212 0.000002
vn -0.935165 0.354212 0.000002
vn -0.935165 0.354213 0.000001
vn -0.935165 0.354213 0.000001
vn -0.935165 0.354213 0.000000
vn -0.556210 0.111495 0.823529
vn -0.556210 0.111496 0.823529
vn -0.556210 0.111496 0.823529
vn -0.556210 0.111496 0.823529
vn 0.000000 0.354212 -0.935165
vn 0.000000 0.354213 -0.935165
vn 0.000000 0.354213 -0.935165
vn 0.000000 0.354213 -0.935165
vn -0.374514 0.104617 -0.921300
vn -0.374514 0.104617 -0.921300
vn -0.374515 0.104618 -0.921300
vn -0.374515 0.104618 -0.921300
vn -0.374515 0.104618 -0.921300
vn 1.000000 0.000000 0.000000
vn 1.000000 -0.000000 0.000000
vn 1.000000 -0.000000 0.000000
vn 1.000000 -0.000000 0.000000
vn 1.000000 0.000000 0.000000
vn 0.832731 -0.143007 0.534891
vn 0.832731 -0.143007 0.534891
vn 0.832731 -0.143007 0.534891
vn 0.832731 -0.143007 0.534891
vn 0.832731 -0.143007 0.534891
vn 0.748616 0.133692 0.649384
vn 0.748616 0.133693 0.649384
vn 0.748616 0.133693 0.649384
vn 0.748614 0.133692 0.649387
vn 0.748615 0.133693 0.649386
vn 0.000000 0.000000 1.000000
vn -0.000000 0.000000 1.000000
vn -0.000000 0.000000 1.000000
vn 0.000000 0.000000 1.000000
vn -0.000000 0.000000 1.000000
vn 0.000000 -0.354213 0.935165
vn 0.000000 -0.354213 0.935165
vn 0.000000 -0.354213 0.935165
vn -1.000000 0.000000 0.000000
vn -1.000000 0.000000 0.000000
vn -1.000000 0.000000 0.000000
vn -1.000000 0.000000 0.000000
vn -1.000000 0.000000 0.000000
vn 0.000000 -0.354212 -0.935165
vn 0.000000 -0.354212 -0.935165
vn 0.000002 -0.354213 -0.935165
vn 0.000002 -0.354213 -0.935165
vn -0.935165 -0.354213 0.000001
vn -0.935165 -0.354213 0.000001
vn -0.935165 -0.354213 0.000001
vn 0.000000 0.000000 -1.000000
vn 0.000000 0.000000 -1.000000
vn 0.000000 0.000000 -1.000000
vn 0.000000 0.000000 -1.000000
vn 0.000000 0.000000 -1.000000
vn -0.942228 -0.135705 -0.306252
vn -0.942228 -0.135705 -0.306252
vn -0.942331 -0.134907 -0.306290
vn -0.942228 -0.135706 -0.306252
vn -0.942228 -0.135705 -0.306252
vn -0.941994 -0.137463 -0.306189
vn -0.944341 -0.116409 -0.307682
s 1
g crystal_D crystal_Exp
f 1/28/1 21/29/2 23/30/3
s 2
f 1/28/4 25/31/5 21/29/6
s 3
f 4/1/7 17/2/8 2/3/9
f 2/3/9 17/2/8 16/4/10
s 4
f 5/12/11 3/9/12 12/10/13
f 12/10/13 3/9/12 11/7/14
s 5
f 4/41/15 9/40/16 17/39/17
f 18/38/18 17/39/17 6/37/19
f 9/40/16 6/37/19 17/39/17
s 6
f 4/13/20 14/14/21 9/15/22
f 14/14/21 15/16/23 9/15/22
f 8/17/24 9/15/22 15/16/23
s 7
f 7/20/25 6/18/26 8/17/27
f 8/17/27 6/18/26 9/15/28
s 8
f 13/42/29 14/43/30 2/44/31
f 2/44/31 14/43/30 4/46/32
s 9
f 26/49/33 27/48/34 13/42/35
f 27/48/34 15/45/36 13/42/35
f 13/42/35 15/45/36 14/43/37
s 10
f 3/9/38 2/3/39 11/7/40
f 11/7/40 2/3/39 20/6/41
f 16/4/42 20/6/41 2/3/39
s 11
f 12/10/43 11/7/44 10/11/45
f 20/6/46 19/8/47 11/7/44
f 19/8/47 10/11/45 11/7/44
s 12
f 17/2/48 18/5/49 16/4/50
f 19/8/51 20/6/52 18/5/49
f 18/5/49 20/6/52 16/4/50
s 1
f 21/29/2 10/32/53 23/30/3
f 23/30/3 10/32/53 7/33/54
f 10/32/53 19/35/55 7/33/54
f 18/38/56 6/37/57 19/35/55
f 19/35/55 6/37/57 7/33/54
s 2
f 5/36/58 12/34/59 25/31/5
f 21/29/6 25/31/5 10/32/60
f 25/31/5 12/34/59 10/32/60
s 14
f 23/21/61 7/20/62 27/19/63
f 7/20/62 8/17/64 27/19/63
f 27/19/63 8/17/64 15/16/65
s 15
f 22/50/66 3/47/67 24/51/68
f 24/51/68 3/47/67 5/52/69
s off
f 25/25/70 24/26/71 5/27/72
s 16
f 2/44/73 3/47/74 13/42/75
f 13/42/75 3/47/74 26/49/76
f 22/50/77 26/49/76 3/47/74
s 17
f 27/19/78 26/22/79 23/21/80
f 26/22/79 22/23/81 23/21/80
f 24/26/82 25/25/83 22/23/81
f 23/21/80 22/23/81 1/24/84
f 22/23/81 25/25/83 1/24/84
