# This file uses centimeters as units for non-parametric coordinates.

g default
v -3.681381 12.707747 3.681381
v -3.681381 -12.179083 -3.681381
v -3.681381 12.707747 0.452148
v 3.681381 12.707747 -2.973129
v -3.681381 0.386007 -3.681381
v 3.681381 10.596525 -3.681381
v -1.408002 18.709742 1.407997
v 0.850743 20.180988 0.850746
v -3.681381 -3.650381 3.681381
v 3.681381 -11.429354 3.681381
v -3.681381 -12.179083 0.590714
v 3.681381 -12.179083 3.409683
v -0.966987 -19.345423 -0.966980
v 0.650499 -20.180994 -0.650505
v 1.566143 -12.179083 -3.681381
v 3.681381 -12.179083 -0.809158
v 1.595269 -17.686678 -1.595268
v 3.681381 -4.449522 -3.681381
v -0.814847 12.707747 3.681381
v 3.681381 -10.454187 3.681381
v 3.681381 12.707747 1.192268
v 1.721257 17.882729 1.721260
vt 0.566952 0.178836
vt 0.672374 0.178836
vt 0.566952 0.488906
vt 0.633935 0.001992
vt 0.748643 0.389300
vt 0.668955 0.792971
vt 0.748643 0.792971
vt 0.692542 0.941082
vt 0.448377 0.998008
vt 0.426896 0.941294
vt 0.542740 0.813590
vt 0.439950 0.813590
vt 0.378526 0.242021
vt 0.560217 0.761491
vt 0.560217 0.390199
vt 0.489339 0.199456
vt 0.560217 0.199456
vt 0.378526 0.217957
vt 0.508738 0.063544
vt 0.385230 0.199456
vt 0.485424 0.001992
vt 0.001494 0.813590
vt 0.072232 0.813590
vt 0.057595 0.961702
vt 0.001494 0.409919
vt 0.134816 0.941294
vt 0.183186 0.242021
vt 0.183186 0.813590
vt 0.113334 0.998008
vt 0.183186 0.217957
vt 0.001494 0.199456
vt 0.183186 0.199456
vt 0.068478 0.022612
vt 0.108392 0.001992
vt 0.190100 0.800544
vt 0.319593 0.800544
vt 0.257083 0.977389
vt 0.371791 0.609801
vt 0.320312 0.936456
vt 0.190100 0.490475
vt 0.296998 0.998008
vt 0.371791 0.238509
vt 0.190100 0.186410
vt 0.371791 0.186410
vt 0.246200 0.038298
vt 0.301939 0.001992
vn -1.000000 0.000000 0.000000
vn -1.000000 0.000000 0.000000
vn -1.000000 0.000000 0.000000
vn -1.000000 0.000000 0.000000
vn -1.000000 0.000000 0.000000
vn -1.000000 0.000000 0.000000
vn 0.000000 0.354214 0.935165
vn -0.000001 0.354214 0.935165
vn -0.000004 0.354213 0.935165
vn -0.000004 0.354213 0.935165
vn -0.000005 0.354211 0.935166
vn -0.935165 0.354213 0.000000
vn -0.935165 0.354213 0.000000
vn -0.935165 0.354213 0.000000
vn 0.000000 -0.354213 -0.935165
vn -0.000000 -0.354213 -0.935165
vn -0.000001 -0.354212 -0.935165
vn -0.000002 -0.354212 -0.935165
vn -0.000005 -0.354208 -0.935167
vn -0.935165 -0.354212 0.000000
vn -0.935165 -0.354212 0.000000
vn -0.935165 -0.354212 0.000000
vn 0.000000 0.000000 -1.000000
vn 0.000000 0.000000 -1.000000
vn 0.000000 0.000000 -1.000000
vn 0.000000 0.000000 -1.000000
vn 0.000000 0.000000 -1.000000
vn 0.935165 0.354213 -0.000002
vn 0.935165 0.354212 -0.000001
vn 0.935165 0.354212 -0.000000
vn 0.935165 0.354212 0.000000
vn -0.403552 0.291000 -0.867448
vn -0.403552 0.290999 -0.867448
vn -0.403552 0.291000 -0.867448
vn -0.403551 0.291000 -0.867448
vn -0.403551 0.290999 -0.867448
vn -0.403551 0.290999 -0.867448
vn 0.000000 0.000000 1.000000
vn 0.000000 0.000000 1.000000
vn 0.000000 0.000000 1.000000
vn 0.000000 0.000000 1.000000
vn 0.000000 0.000000 1.000000
vn 1.000000 0.000000 0.000000
vn 1.000000 0.000000 0.000000
vn 1.000000 0.000000 0.000000
vn 1.000000 0.000000 0.000000
vn 1.000000 0.000000 0.000000
vn 1.000000 0.000000 0.000000
vn 1.000000 0.000000 0.000000
vn 1.000000 0.000000 0.000000
vn 0.935165 -0.354212 -0.000001
vn 0.935165 -0.354212 -0.000001
vn 0.935165 -0.354212 -0.000000
vn 0.935165 -0.354212 0.000000
vn -0.338689 -0.320567 0.884605
vn -0.338688 -0.320566 0.884606
vn -0.338688 -0.320568 0.884605
vn -0.338687 -0.320567 0.884606
vn -0.338683 -0.320569 0.884607
vn -0.338686 -0.320566 0.884607
vn 0.786344 -0.215187 -0.579100
vn 0.786344 -0.215188 -0.579100
vn 0.786344 -0.215188 -0.579100
vn 0.786344 -0.215188 -0.579100
vn 0.482209 0.093607 0.871041
vn 0.482209 0.093607 0.871041
vn 0.482209 0.093607 0.871041
vn 0.482209 0.093607 0.871041
s 1
g crystal_B crystal_Exp
f 2/1/1 11/2/2 5/3/3
f 11/2/2 9/5/4 5/3/3
f 1/7/5 3/6/6 9/5/4
f 9/5/4 3/6/6 5/3/3
s 2
f 1/22/7 19/23/8 7/24/9
f 19/23/8 22/26/10 7/24/9
f 22/26/10 8/29/11 7/24/9
s off
f 1/7/12 7/8/13 3/6/14
s 3
f 2/35/15 15/36/16 13/37/17
f 15/36/16 17/39/18 13/37/17
f 17/39/18 14/41/19 13/37/17
s off
f 2/1/20 13/4/21 11/2/22
s 4
f 6/42/23 18/38/24 5/40/25
f 5/40/25 18/38/24 2/35/26
f 18/38/24 15/36/27 2/35/26
s 5
f 8/9/28 22/10/29 4/11/30
f 4/11/30 22/10/29 21/12/31
s 6
f 5/40/32 3/43/33 6/42/34
f 6/42/34 3/43/33 4/44/35
f 3/43/33 7/45/36 4/44/35
f 7/45/36 8/46/37 4/44/35
s 7
f 10/30/38 20/27/39 9/25/40
f 20/27/39 19/23/41 9/25/40
f 9/25/40 19/23/41 1/22/42
s 8
f 21/12/43 20/13/44 4/11/45
f 4/11/45 20/13/44 6/14/46
f 6/14/46 20/13/44 18/15/47
f 12/20/48 16/16/49 10/18/50
f 10/18/50 16/16/49 20/13/44
f 16/16/49 18/15/47 20/13/44
s 10
f 14/21/51 17/19/52 12/20/53
f 12/20/53 17/19/52 16/16/54
s 11
f 9/25/55 11/31/56 10/30/57
f 10/30/57 11/31/56 12/32/58
f 14/34/59 12/32/58 13/33/60
f 11/31/56 13/33/60 12/32/58
s 12
f 17/19/61 15/17/62 16/16/63
f 16/16/63 15/17/62 18/15/64
s 13
f 22/26/65 19/23/66 21/28/67
f 21/28/67 19/23/66 20/27/68
