# This file uses centimeters as units for non-parametric coordinates.

g default
v -2.380341 -9.993025 -4.122871
v -4.805179 -9.993025 -0.161053
v -2.651545 -9.993025 3.919829
v 2.263112 -9.993025 3.919829
v 4.422067 9.993120 -5.415594
v 5.973311 9.993120 0.000000
v -0.925615 9.993120 5.887104
v -4.853483 -6.859293 -0.135801
v -1.929057 4.810379 5.425969
v -0.485843 17.185207 0.046783
v -0.586129 12.950553 4.564644
v 3.430679 -9.993025 1.897541
v 3.471285 -9.993025 -2.321732
v 5.106830 -3.829260 -0.232647
v 0.794635 -19.815916 1.640109
v 0.941111 -9.993025 -4.208036
v 2.486392 -7.926041 -4.363315
v 0.427135 -22.274179 1.069589
v 2.905447 -9.993034 -3.221043
v -1.266786 -17.360798 -1.996299
v -1.079234 -22.085064 0.227453
v -0.468559 -22.933270 0.916629
v 0.069766 -22.537155 1.008559
v 2.681189 -12.923429 -2.012828
v 3.459306 9.993120 -5.500482
v -1.892407 3.854582 -5.391086
v 3.263589 19.722158 -1.139157
v 2.954524 22.317722 0.158605
v 3.006035 22.198273 0.079393
v 1.796871 20.733099 0.069862
v 2.846420 22.264040 0.191598
v -2.957858 6.517790 -3.668445
v -0.750816 16.222519 -0.573368
v 5.541368 9.993120 -1.507968
v 2.575371 -7.147895 4.038992
v 3.397545 17.531761 1.692912
v 4.437699 16.309471 0.041087
v 1.856782 0.584335 6.774039
v 5.099485 -3.856259 -0.223315
v 5.105599 -3.833901 -0.234219
vt 0.256123 0.286819
vt 0.345947 0.286819
vt 0.256679 0.355795
vt 0.264675 0.020662
vt 0.379099 0.612655
vt 0.168920 0.286819
vt 0.215728 0.124647
vt 0.279844 0.001992
vt 0.178923 0.650237
vt 0.247048 0.863847
vt 0.141006 0.591617
vt 0.389249 0.726732
vt 0.360140 0.791828
vt 0.260698 0.885037
vt 0.261206 0.963129
vt 0.234595 0.940877
vt 0.263886 0.996826
vt 0.458927 0.272312
vt 0.503439 0.272312
vt 0.456304 0.334935
vt 0.509105 0.056101
vt 0.550121 0.407387
vt 0.589510 0.207811
vt 0.596309 0.272312
vt 0.396103 0.505129
vt 0.521663 0.001992
vt 0.550361 0.407880
vt 0.550326 0.407982
vt 0.616104 0.272311
vt 0.578397 0.712225
vt 0.545206 0.712225
vt 0.544301 0.851254
vt 0.641246 0.317808
vt 0.507943 0.878157
vt 0.664408 0.712225
vt 0.543458 0.980872
vt 0.570279 0.926370
vt 0.541715 0.983501
vt 0.039834 0.726732
vt 0.017747 0.612655
vt 0.101077 0.519636
vt 0.001845 0.286819
vt 0.134991 0.892665
vt 0.116894 0.349443
vt 0.047306 0.791828
vt 0.110021 0.286819
vt 0.122860 0.996826
vt 0.077698 0.070608
vt 0.125239 0.998008
vt 0.061743 0.010711
vt 0.049894 0.001992
vt 0.069609 0.016499
vt 0.684853 0.656051
vt 0.757961 0.656051
vt 0.709363 0.818222
vt 0.695592 0.351252
vt 0.796261 0.720552
vt 0.791974 0.610554
vt 0.801198 0.656051
vt 0.713491 0.922208
vt 0.813389 0.216137
vt 0.726933 0.940877
vt 0.834580 0.216137
vt 0.672141 0.292632
vt 0.738782 0.932158
vt 0.809081 0.001992
vt 0.720720 0.079022
vt 0.746648 0.926370
vt 0.841571 0.114964
vt 0.891816 0.036871
vt 0.924099 0.059123
vt 0.918430 0.004621
vt 0.917297 0.001992
vt 0.914917 0.003174
vn -0.852891 -0.008940 -0.522013
vn -0.852891 -0.008940 -0.522013
vn -0.852890 -0.008940 -0.522013
vn -0.855152 -0.015651 -0.518141
vn -0.855152 -0.015651 -0.518141
vn -0.855152 -0.015651 -0.518141
vn -0.861343 -0.016153 -0.507767
vn -0.861343 -0.016153 -0.507767
vn -0.861343 -0.016153 -0.507767
vn -0.884266 -0.017391 0.466660
vn -0.884266 -0.017391 0.466660
vn -0.884266 -0.017391 0.466660
vn -0.880509 -0.005252 0.474000
vn -0.880509 -0.005252 0.474000
vn -0.880509 -0.005252 0.474000
vn -0.350647 -0.015425 0.936381
vn -0.350647 -0.015425 0.936381
vn -0.350647 -0.015425 0.936381
vn -0.405778 -0.072890 0.911061
vn -0.405778 -0.072890 0.911061
vn -0.405778 -0.072890 0.911061
vn 0.000000 -0.041846 0.999124
vn 0.000000 -0.041846 0.999124
vn 0.000000 -0.041846 0.999124
vn 0.151267 -0.317112 0.936247
vn 0.151267 -0.317112 0.936247
vn 0.151267 -0.317112 0.936247
vn 0.860258 -0.115217 0.496670
vn 0.860258 -0.115217 0.496670
vn 0.860258 -0.115217 0.496670
vn 0.883814 -0.081104 0.460755
vn 0.883814 -0.081104 0.460755
vn 0.883814 -0.081104 0.460755
vn -0.024602 -0.280658 -0.959492
vn -0.024602 -0.280658 -0.959492
vn -0.024602 -0.280658 -0.959493
vn -0.821424 -0.269260 -0.502754
vn -0.821424 -0.269260 -0.502754
vn -0.821424 -0.269260 -0.502754
vn -0.821425 -0.269260 -0.502753
vn -0.821425 -0.269260 -0.502753
vn -0.821425 -0.269260 -0.502753
vn -0.856458 -0.249380 0.451985
vn -0.856458 -0.249380 0.451985
vn -0.856458 -0.249380 0.451985
vn -0.856460 -0.249379 0.451980
vn -0.856461 -0.249379 0.451980
vn -0.856460 -0.249379 0.451980
vn 0.000000 -0.226074 0.974110
vn 0.000000 -0.226074 0.974110
vn 0.000000 -0.226074 0.974110
vn 0.000001 -0.226073 0.974110
vn 0.000001 -0.226073 0.974110
vn 0.000001 -0.226073 0.974110
vn 0.000001 -0.226073 0.974110
vn 0.000001 -0.226073 0.974110
vn 0.000001 -0.226073 0.974110
vn 0.935739 0.229238 -0.268034
vn 0.935739 0.229238 -0.268034
vn 0.935739 0.229238 -0.268034
vn -0.757556 0.484570 0.437380
vn -0.757556 0.484570 0.437380
vn -0.757556 0.484570 0.437380
vn -0.757559 0.484568 0.437377
vn -0.757559 0.484568 0.437377
vn -0.757559 0.484568 0.437377
vn 0.458259 0.216774 0.861979
vn 0.458259 0.216774 0.861979
vn 0.458259 0.216774 0.861979
vn 0.214399 0.378103 0.900595
vn 0.214399 0.378103 0.900595
vn 0.214399 0.378103 0.900595
vn 0.131266 0.313639 0.940426
vn 0.131266 0.313639 0.940426
vn 0.131266 0.313639 0.940426
vn 0.283832 0.319837 0.903960
vn 0.283832 0.319837 0.903960
vn 0.283832 0.319837 0.903960
vn 0.876706 -0.071402 -0.475698
vn 0.000000 -0.000000 -0.000000
vn 0.876706 -0.071402 -0.475698
vn 0.959855 -0.055543 -0.274942
vn 0.959855 -0.055543 -0.274942
vn 0.959855 -0.055543 -0.274942
vn 0.000007 -0.226075 0.974110
vn 0.000007 -0.226075 0.974110
vn 0.000007 -0.226075 0.974110
vn 0.841050 -0.238428 0.485580
vn 0.841050 -0.238428 0.485580
vn 0.841050 -0.238428 0.485580
vn 0.087627 -0.067828 -0.993842
vn 0.087627 -0.067828 -0.993841
vn 0.087627 -0.067828 -0.993842
vn 0.055618 -0.066243 -0.996252
vn 0.055618 -0.066243 -0.996252
vn 0.055618 -0.066243 -0.996252
vn 0.010790 -0.082926 -0.996497
vn 0.010790 -0.082926 -0.996497
vn 0.010790 -0.082926 -0.996497
vn -0.025528 -0.090280 -0.995589
vn -0.025528 -0.090280 -0.995589
vn -0.025528 -0.090280 -0.995589
vn 0.814130 -0.273502 -0.512240
vn 0.814130 -0.273502 -0.512240
vn 0.814130 -0.273502 -0.512240
vn 0.970527 -0.181804 0.158194
vn 0.970527 -0.181804 0.158194
vn 0.970527 -0.181804 0.158194
vn 0.965725 -0.259403 0.009297
vn 0.965725 -0.259403 0.009297
vn 0.965725 -0.259403 0.009297
vn 0.965711 -0.259445 0.009466
vn 0.965711 -0.259445 0.009466
vn 0.965711 -0.259445 0.009466
vn 0.965724 -0.259403 0.009294
vn 0.965724 -0.259403 0.009294
vn 0.965724 -0.259403 0.009294
vn 0.965726 -0.259399 0.009294
vn 0.965726 -0.259399 0.009294
vn 0.965726 -0.259399 0.009294
vn 0.416456 -0.373608 -0.828843
vn 0.416456 -0.373608 -0.828843
vn 0.416456 -0.373608 -0.828843
vn 0.416457 -0.373607 -0.828844
vn 0.416457 -0.373607 -0.828844
vn 0.416457 -0.373607 -0.828844
vn 0.416452 -0.373610 -0.828845
vn 0.416452 -0.373610 -0.828845
vn 0.416452 -0.373610 -0.828845
vn 0.416453 -0.373611 -0.828844
vn 0.416453 -0.373611 -0.828844
vn 0.416453 -0.373611 -0.828844
vn 0.416456 -0.373611 -0.828842
vn 0.416456 -0.373611 -0.828842
vn 0.416456 -0.373611 -0.828842
vn 0.416454 -0.373610 -0.828843
vn 0.416454 -0.373611 -0.828843
vn 0.416455 -0.373611 -0.828843
vn 0.416473 -0.373613 -0.828833
vn 0.416473 -0.373613 -0.828833
vn 0.416473 -0.373613 -0.828833
vn -0.973951 0.175829 0.143189
vn -0.973951 0.175829 0.143188
vn -0.973951 0.175829 0.143188
vn -0.973951 0.175829 0.143188
vn -0.973951 0.175829 0.143188
vn -0.973951 0.175829 0.143188
vn -0.973951 0.175829 0.143188
vn -0.973951 0.175829 0.143188
vn -0.973952 0.175829 0.143188
vn -0.973951 0.175829 0.143189
vn -0.973951 0.175829 0.143189
vn -0.973951 0.175829 0.143189
vn -0.973951 0.175832 0.143190
vn -0.973951 0.175832 0.143190
vn -0.973951 0.175832 0.143190
vn 0.080144 0.409085 -0.908970
vn 0.080144 0.409085 -0.908970
vn 0.080144 0.409085 -0.908970
vn -0.431785 0.361715 -0.826271
vn -0.431785 0.361715 -0.826271
vn -0.431785 0.361715 -0.826271
vn -0.431785 0.361715 -0.826271
vn -0.431785 0.361715 -0.826271
vn -0.431785 0.361715 -0.826271
vn -0.431786 0.361714 -0.826271
vn -0.431786 0.361714 -0.826271
vn -0.431786 0.361714 -0.826271
vn -0.566538 0.550778 -0.612926
vn -0.566538 0.550778 -0.612926
vn -0.566538 0.550778 -0.612926
vn -0.469896 0.307713 -0.827352
vn -0.469896 0.307713 -0.827352
vn -0.469896 0.307713 -0.827352
vn -0.431785 0.361714 -0.826272
vn -0.431785 0.361714 -0.826272
vn -0.431785 0.361714 -0.826272
vn -0.431797 0.361724 -0.826261
vn -0.431797 0.361724 -0.826261
vn -0.431797 0.361724 -0.826261
vn -0.431785 0.361714 -0.826272
vn -0.431785 0.361714 -0.826272
vn -0.431785 0.361714 -0.826272
vn 0.928593 0.188446 0.319693
vn 0.928593 0.188446 0.319693
vn 0.928593 0.188446 0.319693
vn 0.890176 0.213799 0.402340
vn 0.890176 0.213799 0.402340
vn 0.890176 0.213799 0.402340
vn 0.935739 0.229237 -0.268035
vn 0.935739 0.229237 -0.268035
vn 0.935739 0.229237 -0.268035
vn 0.935739 0.229238 -0.268033
vn 0.935740 0.229238 -0.268033
vn 0.935739 0.229238 -0.268033
vn 0.935739 0.229238 -0.268034
vn 0.935739 0.229238 -0.268034
vn 0.935739 0.229238 -0.268034
vn 0.954490 -0.119162 -0.273404
vn 0.954490 -0.119162 -0.273404
vn 0.954490 -0.119162 -0.273404
vn 0.883070 -0.076788 -0.462915
vn 0.883070 -0.076788 -0.462915
vn 0.883070 -0.076788 -0.462915
vn 0.844564 -0.065840 -0.531391
vn 0.844564 -0.065840 -0.531391
vn 0.844564 -0.065840 -0.531391
vn 0.876749 -0.071445 -0.475612
vn 0.876749 -0.071445 -0.475612
vn 0.876749 -0.071445 -0.475612
vn 0.965694 -0.259510 0.009481
vn 0.965694 -0.259510 0.009481
vn 0.965694 -0.259510 0.009481
vn 0.866524 0.069416 0.494285
vn 0.866524 0.069416 0.494285
vn 0.866524 0.069416 0.494285
vn 0.719077 0.170437 0.673706
vn 0.719077 0.170437 0.673706
vn 0.719077 0.170437 0.673706
vn 0.889501 -0.063376 0.452516
vn 0.889501 -0.063376 0.452516
vn 0.889501 -0.063376 0.452516
vn 0.883705 -0.081057 0.460971
vn 0.883705 -0.081057 0.460971
vn 0.883705 -0.081057 0.460971
vn 0.883764 -0.080894 0.460888
vn 0.883764 -0.080894 0.460888
vn 0.883764 -0.080894 0.460888
s off
g crystalHex_G
f 2/1/1 8/3/2 1/6/3
f 8/3/4 32/9/5 1/6/6
f 1/6/7 32/9/8 26/11/9
f 2/1/10 3/2/11 8/3/12
f 8/3/13 3/2/14 9/5/15
f 7/39/16 9/40/17 38/41/18
f 9/40/19 3/42/20 38/41/21
f 4/46/22 35/44/23 3/42/24
f 3/42/25 35/44/26 38/41/27
f 4/18/28 12/19/29 35/20/30
f 35/20/31 12/19/32 39/22/33
f 1/53/34 16/54/35 20/55/36
f 1/6/37 20/7/38 2/1/39
f 2/1/40 20/7/41 21/4/42
f 2/1/43 21/4/44 3/2/45
f 3/2/46 21/4/47 22/8/48
f 4/46/49 3/42/50 15/48/51
f 22/51/52 23/50/53 3/42/54
f 3/42/55 23/50/56 15/48/57
f 6/31/58 34/30/59 37/32/60
f 31/17/61 30/15/62 11/13/63
f 10/14/64 11/13/65 30/15/66
f 38/41/67 36/43/68 7/39/69
f 7/39/70 36/43/71 11/45/72
f 28/49/73 31/47/74 36/43/75
f 11/45/76 36/43/77 31/47/78
f 40/27/79 34/30/80 14/28/81
f 14/28/82 34/30/83 6/31/84
f 15/48/85 23/50/86 18/52/87
f 15/21/88 12/19/89 4/18/90
f 5/63/91 17/58/92 25/61/93
f 25/61/94 17/58/95 26/56/96
f 17/58/97 16/54/98 26/56/99
f 16/54/100 1/53/101 26/56/102
f 24/23/103 19/29/104 13/24/105
f 18/26/106 24/23/107 15/21/108
f 15/21/109 24/23/110 12/19/111
f 40/27/112 39/22/113 13/24/114
f 39/22/115 12/19/116 13/24/117
f 24/23/118 13/24/119 12/19/120
f 17/58/121 19/59/122 16/54/123
f 19/59/124 24/57/125 16/54/126
f 16/54/127 24/57/128 20/55/129
f 20/55/130 24/57/131 21/60/132
f 21/60/133 24/57/134 22/62/135
f 22/62/136 24/57/137 23/65/138
f 24/57/139 18/68/140 23/65/141
f 8/3/142 9/5/143 32/9/144
f 32/9/145 9/5/146 33/10/147
f 9/5/148 7/12/149 33/10/150
f 7/12/151 11/13/152 33/10/153
f 33/10/154 11/13/155 10/14/156
f 5/63/157 25/61/158 27/66/159
f 26/56/160 32/64/161 25/61/162
f 32/64/163 33/67/164 25/61/165
f 25/61/166 33/67/167 27/66/168
f 33/10/169 10/14/170 27/16/171
f 10/69/172 30/70/173 27/71/174
f 27/71/175 30/70/176 29/72/177
f 29/72/178 30/70/179 28/73/180
f 30/70/181 31/74/182 28/73/183
f 28/38/184 36/34/185 29/36/186
f 36/34/187 37/32/188 29/36/189
f 29/36/190 37/32/191 27/37/192
f 5/35/193 27/37/194 34/30/195
f 37/32/196 34/30/197 27/37/198
f 5/35/199 34/30/200 17/33/201
f 17/33/202 34/30/203 19/29/204
f 19/29/205 34/30/206 13/24/207
f 34/30/208 40/27/209 13/24/210
f 39/22/211 40/27/212 14/28/213
f 36/34/214 38/25/215 37/32/216
f 37/32/217 38/25/218 6/31/219
f 6/31/220 38/25/221 14/28/222
f 14/28/223 38/25/224 39/22/225
f 38/25/226 35/20/227 39/22/228
