# This file uses centimeters as units for non-parametric coordinates.

g default
v -3.918683 -10.655806 0.079478
v 2.244640 -10.783886 0.358023
v 1.738374 11.086085 -3.791969
v 3.247298 7.517845 0.283632
v -0.618533 17.942312 -1.250764
v 1.610815 -13.243903 0.565030
v 0.356589 -16.035328 2.102345
v -0.795304 10.964264 -3.825334
v -2.436634 10.968689 -2.570987
v -2.115192 -2.094107 -3.811828
v -1.514763 12.829838 -3.133515
v -2.456220 -10.675048 -3.397902
v -2.271907 -9.800229 -3.795592
v -1.686556 -16.871357 0.046323
v -0.694260 -18.388729 1.132771
v 0.179832 -18.147831 1.272166
v 1.202456 -15.498195 0.208028
v 1.380889 -10.757879 -2.041568
v 1.364529 2.393643 -3.738008
v -1.727860 -9.523540 -3.774518
v -3.122131 -10.666287 2.019160
v -2.431649 -3.970254 3.499394
v -0.722617 -14.703666 2.563311
v -1.235846 -15.771025 2.121653
v -3.753977 4.571280 0.113362
v -0.667614 18.020344 -1.090545
v -2.536760 10.978118 -2.354266
v 2.358183 9.923519 2.370332
v 2.075535 8.582764 2.736179
v -2.291149 3.414953 3.620012
v -2.785618 7.354086 2.332371
v -0.646545 17.795658 -0.526801
vt 0.108385 0.213536
vt 0.161447 0.213249
vt 0.109312 0.630092
vt 0.107478 0.043502
vt 0.201941 0.396428
vt 0.013257 0.213009
vt 0.164251 0.073603
vt 0.205241 0.598459
vt 0.002377 0.236941
vt 0.137199 0.001992
vt 0.170015 0.706219
vt 0.001933 0.447752
vt 0.041807 0.805359
vt 0.091799 0.991861
vt 0.035878 0.805101
vt 0.076377 0.998008
vt 0.001564 0.804980
vt 0.071994 0.995873
vt 0.020489 0.856015
vt 0.535387 0.801723
vt 0.423894 0.704109
vt 0.533911 0.563930
vt 0.465869 0.989283
vt 0.421859 0.203442
vt 0.461486 0.991418
vt 0.356802 0.733241
vt 0.487503 0.204153
vt 0.446065 0.985271
vt 0.416196 0.136145
vt 0.366810 0.769919
vt 0.425962 0.074476
vt 0.374141 0.059782
vt 0.335923 0.389837
vt 0.396852 0.001992
vt 0.332623 0.591869
vt 0.327051 0.189553
vt 0.257739 0.192885
vt 0.262575 0.001992
vt 0.316824 0.427346
vt 0.238057 0.141850
vt 0.221632 0.550114
vt 0.232228 0.753355
vt 0.217344 0.760924
vt 0.317271 0.787122
vt 0.233357 0.954364
vt 0.312390 0.916799
vt 0.260503 0.995874
vt 0.212302 0.784856
vt 0.284415 0.989284
vt 0.754695 0.001992
vt 0.778607 0.008582
vt 0.739879 0.073603
vt 0.783443 0.066372
vt 0.753920 0.102802
vt 0.707167 0.396428
vt 0.688278 0.213249
vt 0.674398 0.599088
vt 0.554942 0.457716
vt 0.661685 0.001992
vt 0.541415 0.565476
vt 0.682131 0.635766
vt 0.599933 0.851118
vn -0.924981 0.009160 0.379903
vn -0.924981 0.009160 0.379903
vn -0.924981 0.009160 0.379903
vn -0.922688 0.009945 0.385419
vn -0.922688 0.009945 0.385419
vn -0.922688 0.009945 0.385419
vn -0.921541 0.011193 0.388119
vn -0.921541 0.011193 0.388119
vn -0.921541 0.011193 0.388119
vn -0.921541 0.011191 0.388119
vn -0.921541 0.011191 0.388119
vn -0.921541 0.011191 0.388119
vn 0.924393 -0.042110 -0.379109
vn 0.924393 -0.042110 -0.379109
vn 0.924393 -0.042110 -0.379109
vn 0.928382 -0.052357 -0.367920
vn 0.928382 -0.052357 -0.367920
vn 0.928382 -0.052357 -0.367920
vn 0.939902 -0.042531 -0.338786
vn 0.939902 -0.042531 -0.338786
vn 0.939902 -0.042531 -0.338786
vn -0.876187 -0.312700 -0.366763
vn -0.876187 -0.312700 -0.366763
vn -0.876187 -0.312700 -0.366763
vn 0.931322 -0.215233 0.293794
vn 0.931322 -0.215233 0.293794
vn 0.931322 -0.215233 0.293794
vn 0.912445 -0.219934 0.345070
vn 0.912445 -0.219934 0.345070
vn 0.912445 -0.219934 0.345070
vn 0.913220 -0.212934 0.347401
vn 0.913220 -0.212934 0.347401
vn 0.913220 -0.212934 0.347401
vn -0.004293 0.346237 -0.938137
vn -0.004293 0.346237 -0.938137
vn -0.004293 0.346237 -0.938137
vn -0.004295 0.346237 -0.938137
vn -0.004295 0.346237 -0.938137
vn -0.004295 0.346237 -0.938137
vn 0.938808 0.340923 -0.049095
vn 0.938808 0.340923 -0.049095
vn 0.938808 0.340923 -0.049095
vn 0.935337 0.353639 -0.009161
vn 0.935337 0.353639 -0.009161
vn 0.935337 0.353639 -0.009161
vn 0.926724 0.359671 0.108714
vn 0.926724 0.359671 0.108714
vn 0.926724 0.359671 0.108714
vn 0.926724 0.359670 0.108715
vn 0.926724 0.359670 0.108715
vn 0.926724 0.359670 0.108715
vn -0.048761 -0.361784 0.930986
vn -0.048761 -0.361784 0.930986
vn -0.048761 -0.361785 0.930986
vn -0.048759 -0.361783 0.930987
vn -0.048759 -0.361783 0.930987
vn -0.048759 -0.361783 0.930987
vn -0.048759 -0.361784 0.930986
vn -0.048759 -0.361784 0.930986
vn -0.048759 -0.361784 0.930986
vn -0.860315 0.302035 -0.410650
vn -0.860315 0.302035 -0.410650
vn -0.860315 0.302035 -0.410650
vn -0.860330 0.302034 -0.410618
vn -0.860330 0.302034 -0.410618
vn -0.860330 0.302034 -0.410618
vn -0.860331 0.302034 -0.410616
vn -0.860331 0.302034 -0.410616
vn -0.860331 0.302034 -0.410616
vn -0.605997 0.060431 -0.793168
vn -0.605997 0.060431 -0.793168
vn -0.605997 0.060431 -0.793168
vn -0.605997 0.060431 -0.793168
vn -0.605997 0.060431 -0.793168
vn -0.605997 0.060431 -0.793168
vn -0.921721 0.010833 -0.387703
vn -0.921721 0.010833 -0.387703
vn -0.921721 0.010833 -0.387703
vn -0.917956 0.013171 -0.396464
vn -0.917956 0.013171 -0.396464
vn -0.917956 0.013171 -0.396464
vn -0.911633 0.017674 -0.410624
vn -0.911633 0.017674 -0.410624
vn -0.911633 0.017674 -0.410624
vn -0.907366 0.017565 -0.419974
vn -0.907366 0.017565 -0.419974
vn -0.907366 0.017565 -0.419973
vn -0.912667 0.016103 -0.408387
vn -0.912667 0.016103 -0.408387
vn -0.912667 0.016103 -0.408387
vn 0.040191 -0.002922 -0.999188
vn 0.040191 -0.002922 -0.999188
vn 0.040191 -0.002922 -0.999188
vn 0.025937 -0.003668 -0.999657
vn 0.025937 -0.003668 -0.999657
vn 0.025937 -0.003668 -0.999657
vn 0.025919 -0.003654 -0.999657
vn 0.025919 -0.003654 -0.999657
vn 0.025919 -0.003654 -0.999657
vn 0.013494 -0.006787 -0.999886
vn 0.013494 -0.006787 -0.999886
vn 0.013494 -0.006787 -0.999886
vn 0.922485 -0.193300 -0.334151
vn 0.922485 -0.193300 -0.334151
vn 0.922485 -0.193300 -0.334151
vn 0.310562 -0.417054 -0.854177
vn 0.310562 -0.417054 -0.854177
vn 0.310562 -0.417054 -0.854177
vn 0.259236 -0.444432 -0.857483
vn 0.259236 -0.444432 -0.857483
vn 0.259236 -0.444432 -0.857483
vn 0.259231 -0.444433 -0.857484
vn 0.259231 -0.444433 -0.857484
vn 0.259231 -0.444433 -0.857484
vn 0.259240 -0.444431 -0.857482
vn 0.259240 -0.444431 -0.857482
vn 0.259240 -0.444431 -0.857482
vn 0.259241 -0.444431 -0.857482
vn 0.259241 -0.444431 -0.857482
vn 0.259241 -0.444431 -0.857482
vn 0.259250 -0.444429 -0.857480
vn 0.259250 -0.444429 -0.857480
vn 0.259250 -0.444429 -0.857480
vn 0.448896 -0.113769 -0.886312
vn 0.448896 -0.113769 -0.886312
vn 0.448896 -0.113769 -0.886312
vn -0.877875 -0.317176 0.358796
vn -0.877875 -0.317176 0.358796
vn -0.877875 -0.317176 0.358796
vn -0.877864 -0.317181 0.358819
vn -0.877864 -0.317181 0.358819
vn -0.877864 -0.317181 0.358819
vn -0.877868 -0.317173 0.358816
vn -0.877868 -0.317173 0.358816
vn -0.877868 -0.317173 0.358816
vn -0.449440 -0.148387 0.880900
vn -0.449440 -0.148387 0.880900
vn -0.449440 -0.148387 0.880900
vn -0.449446 -0.148391 0.880897
vn -0.449446 -0.148391 0.880897
vn -0.449446 -0.148391 0.880897
vn -0.963972 0.232746 0.128789
vn -0.963972 0.232746 0.128789
vn -0.963972 0.232746 0.128789
vn -0.963972 0.232746 0.128790
vn -0.963972 0.232746 0.128790
vn -0.963972 0.232746 0.128790
vn -0.963972 0.232746 0.128789
vn -0.963972 0.232746 0.128789
vn -0.963972 0.232746 0.128789
vn 0.610938 -0.091233 0.786404
vn 0.610937 -0.091233 0.786404
vn 0.610938 -0.091233 0.786404
vn 0.889370 -0.063966 0.452692
vn 0.889370 -0.063966 0.452692
vn 0.889370 -0.063966 0.452692
vn 0.893192 -0.047116 0.447202
vn 0.893192 -0.047116 0.447201
vn 0.893192 -0.047116 0.447201
vn 0.310423 -0.100636 0.945257
vn 0.310423 -0.100636 0.945257
vn 0.310423 -0.100636 0.945257
vn 0.550467 -0.024102 0.834509
vn 0.550467 -0.024102 0.834509
vn 0.550467 -0.024102 0.834509
vn 0.697602 0.078755 0.712144
vn 0.697602 0.078755 0.712144
vn 0.697602 0.078755 0.712144
vn 0.369416 -0.022200 0.928999
vn 0.369416 -0.022200 0.928999
vn 0.369416 -0.022200 0.928999
vn -0.151757 0.289845 0.944965
vn -0.151757 0.289845 0.944965
vn -0.151757 0.289845 0.944965
vn -0.151755 0.289841 0.944967
vn -0.151755 0.289841 0.944967
vn -0.151755 0.289841 0.944967
vn -0.151756 0.289845 0.944966
vn -0.151756 0.289845 0.944966
vn -0.151756 0.289845 0.944966
s off
g crystalHex_D
f 1/1/1 21/2/2 25/3/3
f 21/2/4 22/5/5 25/3/6
f 22/5/7 30/8/8 25/3/9
f 30/8/10 31/11/11 25/3/12
f 3/20/13 4/21/14 19/22/15
f 4/21/16 2/24/17 19/22/18
f 2/24/19 18/27/20 19/22/21
f 1/1/22 12/6/23 14/4/24
f 2/24/25 6/29/26 17/31/27
f 6/29/28 7/32/29 17/31/30
f 7/32/31 16/34/32 17/31/33
f 3/36/34 8/37/35 5/38/36
f 5/38/37 8/37/38 11/40/39
f 3/20/40 5/23/41 4/21/42
f 28/30/43 4/21/44 32/28/45
f 5/23/46 26/25/47 4/21/48
f 26/25/49 32/28/50 4/21/51
f 15/50/52 16/51/53 24/52/54
f 16/51/55 7/53/56 24/52/57
f 7/53/58 23/54/59 24/52/60
f 26/16/61 5/18/62 27/13/63
f 27/13/64 5/18/65 9/15/66
f 11/19/67 9/15/68 5/18/69
f 10/12/70 9/15/71 8/17/72
f 8/17/73 9/15/74 11/19/75
f 1/1/76 25/3/77 12/6/78
f 12/6/79 25/3/80 13/9/81
f 13/9/82 25/3/83 10/12/84
f 9/15/85 10/12/86 27/13/87
f 25/3/88 27/13/89 10/12/90
f 13/43/91 10/41/92 20/42/93
f 20/42/94 10/41/95 19/39/96
f 10/41/97 8/37/98 19/39/99
f 19/39/100 8/37/101 3/36/102
f 2/24/103 17/31/104 18/27/105
f 18/44/106 17/46/107 20/42/108
f 17/46/109 16/49/110 20/42/111
f 16/49/112 15/47/113 20/42/114
f 15/47/115 14/45/116 20/42/117
f 20/42/118 14/45/119 13/43/120
f 14/45/121 12/48/122 13/43/123
f 19/39/124 18/44/125 20/42/126
f 1/1/127 14/4/128 21/2/129
f 21/2/130 14/4/131 24/7/132
f 24/7/133 14/4/134 15/10/135
f 22/55/136 21/56/137 23/54/138
f 23/54/139 21/56/140 24/52/141
f 25/3/142 31/11/143 27/13/144
f 26/16/145 27/13/146 32/14/147
f 31/11/148 32/14/149 27/13/150
f 6/29/151 2/24/152 29/26/153
f 28/30/154 29/26/155 4/21/156
f 29/26/157 2/24/158 4/21/159
f 29/57/160 30/58/161 6/59/162
f 30/35/163 22/33/164 6/29/165
f 6/29/166 22/33/167 7/32/168
f 22/55/169 23/54/170 7/53/171
f 32/62/172 31/60/173 28/61/174
f 28/61/175 31/60/176 29/57/177
f 31/60/178 30/58/179 29/57/180
